<?xml version="1.0" encoding="utf-8"?>
<!-- Generator: Adobe Adobe Illustrator 24.2.0, SVG Export Plug-In . SVG Version: 6.00 Build 0)  -->
<svg version="1.1" id="Ebene_1" xmlns="http://www.w3.org/2000/svg" xmlns:xlink="http://www.w3.org/1999/xlink" x="0px" y="0px"
	 viewBox="0 0 450 100" style="enable-background:new 0 0 450 100;" xml:space="preserve">
<rect x="17.23" y="27.74" width="6.5" height="49"/>
<path d="M80.13,34.77c0.87-1.04,0.96-1.41,3.35-3.75c1.92-1.95,5.31-4.5,8.11-6.19c-4.82,1.76-8.8,5.17-12.42,8.72
	c-2.55,2.84-6.41,5.95-5.91,10.17c0.39,1.83,1.34,3.5,1.69,5.34c0.04,0.24,0.13,0.82,0.15,1.01c0.23,1.68,0.06,3.39-0.45,5.01
	c-0.02,0.05-0.02,0.07-0.03,0.1c-0.05,0.12-0.13,0.32-0.15,0.36c-0.6,1.33-0.66,1.27-0.81,1.55c-0.03,0.05-0.05,0.07-0.07,0.11
	c-0.08,0.08-0.15,0.17-0.23,0.25c-2.07,1.91-4.17,3.79-6.23,5.7c-1.27,1.2-2.46,2.28-3.65,3.31V27.74h-6.5v44.02
	c-2.46,1.91-5.26,4.04-8.85,6.8c-8.76,7-11.93,10.15-19.77,16.59c-1.28,1.08-2.56,2.16-3.84,3.25c6.79-4.24,13.23-8.98,19.82-13.5
	c4.34-2.75,8.55-5.7,12.63-8.83v0.68h6.5v-5.91C69.17,66,74.52,60.77,79.42,55.14c4.14-4.85,7.09-10.9,2.18-16.39
	C80.37,37.15,79.63,36.56,80.13,34.77z"/>
<rect x="28.99" y="25.54" transform="matrix(0.7071 -0.7071 0.7071 0.7071 -19.122 34.4214)" width="6" height="29.5"/>
<rect x="45.64" y="25.54" transform="matrix(0.7071 0.7071 -0.7071 0.7071 42.7376 -22.5917)" width="6" height="29.5"/>
<g>
	<g>
		<path d="M100.98,55.86h2.57l-1.18,15.74c-0.17,2.08-0.42,4.1-0.52,4.76h0.14c0.24-0.69,1.63-4.17,1.95-4.83l4.13-9.31h2.29
			l0.66,7.78c0.14,1.6,0.38,4.66,0.42,6.22h0.21c0.14-0.66,0.94-4.1,1.15-4.79l4.66-15.57h2.57l-7.09,22.83h-3.34l-0.62-9.24
			c-0.1-1.35-0.21-3.27-0.21-4.34h-0.17c-0.35,1.11-0.97,2.99-1.56,4.34l-3.96,9.24h-3.47L100.98,55.86z"/>
		<path d="M118.28,71.81c0-6.08,4.52-10.42,9.62-10.42c4.13,0,6.43,2.75,6.43,6.5c0,1.18-0.28,2.57-0.45,3.02h-13.55l0.35-2.08
			h12.06l-1.11,0.52c0.14-0.49,0.21-1.04,0.21-1.56c0-2.64-1.56-4.27-4.06-4.27c-3.27,0-6.84,3.27-6.84,8.17
			c0,3.41,2.02,5.32,5.07,5.32c2.22,0,4.2-0.94,5.77-2.19l1.01,1.81c-1.7,1.36-4.34,2.5-7.3,2.5
			C121.09,79.11,118.28,76.53,118.28,71.81z"/>
		<path d="M138.67,76.57h-0.1l-0.62,2.12h-2.22l4.93-24.74h2.68l-1.32,6.6l-0.94,3.72h0.14c1.67-1.56,3.93-2.88,6.12-2.88
			c3.58,0,5.8,2.4,5.8,6.71c0,6.11-4,11.01-9.28,11.01C141.62,79.11,139.75,78.06,138.67,76.57z M150.38,68.47
			c0-3.27-1.56-4.83-3.93-4.83c-1.7,0-3.89,1.22-5.7,3.23l-1.53,7.57c1.18,1.77,2.75,2.4,4.34,2.4
			C147.46,76.85,150.38,73.03,150.38,68.47z"/>
		<path d="M173.03,72.64c0-6.04,4.13-11.26,9.28-11.26c2.4,0,4.1,0.97,5.07,2.47h0.1l0.59-3.3l1.32-6.6h2.68l-5,24.74h-2.19
			l0.24-2.57h-0.14c-1.77,1.81-4,2.99-6.18,2.99C175.32,79.11,173.03,76.85,173.03,72.64z M185.4,73.58l1.56-7.47
			c-1.15-1.77-2.75-2.47-4.31-2.47c-3.86,0-6.88,4.06-6.88,8.58c0,3.16,1.53,4.62,3.86,4.62C181.47,76.85,183.55,75.74,185.4,73.58z
			"/>
		<path d="M191.79,71.81c0-6.08,4.52-10.42,9.62-10.42c4.13,0,6.43,2.75,6.43,6.5c0,1.18-0.28,2.57-0.45,3.02h-13.55l0.35-2.08
			h12.06l-1.11,0.52c0.14-0.49,0.21-1.04,0.21-1.56c0-2.64-1.56-4.27-4.06-4.27c-3.27,0-6.84,3.27-6.84,8.17
			c0,3.41,2.02,5.32,5.07,5.32c2.22,0,4.2-0.94,5.77-2.19l1.01,1.81c-1.7,1.36-4.34,2.5-7.3,2.5
			C194.6,79.11,191.79,76.53,191.79,71.81z"/>
		<path d="M211,61.8h2.64l2.12,9.8c0.35,1.67,0.66,3.37,0.97,4.97h0.14c0.8-1.56,1.77-3.27,2.81-5l5.77-9.76h2.74l-10.21,16.89
			h-3.16L211,61.8z"/>
		<path d="M228.54,71.81c0-6.08,4.52-10.42,9.62-10.42c4.13,0,6.43,2.75,6.43,6.5c0,1.18-0.28,2.57-0.45,3.02h-13.55l0.35-2.08
			h12.06l-1.11,0.52c0.14-0.49,0.21-1.04,0.21-1.56c0-2.64-1.56-4.27-4.07-4.27c-3.27,0-6.84,3.27-6.84,8.17
			c0,3.41,2.02,5.32,5.07,5.32c2.22,0,4.2-0.94,5.77-2.19l1.01,1.81c-1.7,1.36-4.34,2.5-7.3,2.5
			C231.35,79.11,228.54,76.53,228.54,71.81z"/>
		<path d="M251.5,74.59c0-0.56,0.07-1.15,0.24-1.84l3.47-16.64h-5.59l0.45-2.15h8.23l-3.93,18.9c-0.1,0.49-0.17,1.01-0.17,1.53
			c0,1.74,1.01,2.47,2.54,2.47c1.11,0,2.08-0.28,3.3-0.9l0.66,2.05c-1.49,0.73-3.02,1.11-4.69,1.11
			C253.41,79.11,251.5,77.58,251.5,74.59z"/>
		<path d="M264.7,71.71c0-5.91,4.55-10.32,9.73-10.32c4.41,0,7.05,3.02,7.05,7.4c0,5.91-4.55,10.32-9.69,10.32
			C267.34,79.11,264.7,76.08,264.7,71.71z M278.77,68.96c0-3.27-1.7-5.32-4.55-5.32c-3.58,0-6.81,3.51-6.81,7.89
			c0,3.27,1.7,5.32,4.55,5.32C275.54,76.85,278.77,73.34,278.77,68.96z"/>
		<path d="M286.1,61.8h2.22l-0.31,2.61h0.14c1.74-1.63,3.89-3.02,6.22-3.02c3.51,0,5.77,2.4,5.77,6.71c0,6.11-3.72,11.01-9.28,11.01
			c-2.12,0-4-1.01-5.07-2.43h-0.14l-0.62,3.61l-1.04,5.52h-2.68L286.1,61.8z M297.39,68.47c0-3.27-1.56-4.83-3.93-4.83
			c-1.7,0-3.89,1.22-5.66,3.23l-1.56,7.57c1.18,1.77,2.81,2.4,4.45,2.4C294.54,76.85,297.39,73.03,297.39,68.47z"/>
		<path d="M303.23,61.8h2.05l-0.24,2.29h0.1c1.35-1.7,2.81-2.71,4.55-2.71c1.56,0,2.47,0.83,2.54,2.88l-0.42,0.38
			c1.74-2.36,3.47-3.27,5.14-3.27c1.63,0,2.64,0.94,2.64,2.95c0,0.59-0.03,1.08-0.21,1.91l-2.5,12.44h-2.64l2.43-12.09
			c0.1-0.56,0.14-0.94,0.14-1.32c0-1.15-0.42-1.6-1.18-1.6c-1.22,0-2.26,0.94-3.51,2.78l-2.47,12.23h-2.57l2.5-12.09
			c0.1-0.56,0.14-0.94,0.14-1.32c0-1.15-0.49-1.6-1.22-1.6c-1.29,0-2.29,0.94-3.61,2.78l-2.4,12.23h-2.64L303.23,61.8z"/>
		<path d="M320.42,71.81c0-6.08,4.52-10.42,9.62-10.42c4.13,0,6.43,2.75,6.43,6.5c0,1.18-0.28,2.57-0.45,3.02h-13.55l0.35-2.08
			h12.06l-1.11,0.52c0.14-0.49,0.21-1.04,0.21-1.56c0-2.64-1.56-4.27-4.07-4.27c-3.27,0-6.84,3.27-6.84,8.17
			c0,3.41,2.02,5.32,5.07,5.32c2.22,0,4.2-0.94,5.77-2.19l1.01,1.81c-1.7,1.36-4.34,2.5-7.3,2.5
			C323.24,79.11,320.42,76.53,320.42,71.81z"/>
		<path d="M341.2,61.8h2.22l-0.45,3.44h0.14c2.05-2.01,4.55-3.86,7.57-3.86c2.99,0,4.34,1.67,4.34,4.2c0,0.97-0.14,1.84-0.31,2.78
			l-2.08,10.32h-2.68l2.02-10.04c0.17-0.87,0.31-1.6,0.31-2.36c0-1.67-0.94-2.57-2.68-2.57c-2.26,0-4.59,1.49-6.88,4.06l-2.19,10.91
			h-2.67L341.2,61.8z"/>
		<path d="M360.51,74.28c0-0.73,0.1-1.39,0.28-2.19l1.67-8.13h-4.9l0.38-1.98l5.07-0.17l1.46-5.42h2.22l-1.11,5.42h8.3l-0.45,2.15
			h-8.34l-1.7,8.2c-0.14,0.63-0.17,1.08-0.17,1.53c0,2.15,1.22,3.16,3.13,3.16c1.67,0,3.16-0.52,4.38-1.22l0.87,1.95
			c-1.46,0.9-3.58,1.53-5.94,1.53C362.11,79.11,360.51,77.16,360.51,74.28z"/>
	</g>
</g>
</svg>
